<mxfile host="65bd71144e">
    <diagram id="u0gDMfwviJEzjokIoTfS" name="PÃ¡gina-1">
        <mxGraphModel dx="728" dy="451" grid="1" gridSize="10" guides="1" tooltips="1" connect="1" arrows="1" fold="1" page="1" pageScale="1" pageWidth="827" pageHeight="1169" math="0" shadow="0">
            <root>
                <mxCell id="0"/>
                <mxCell id="1" parent="0"/>
                <mxCell id="3" value="set_naturaleza()&lt;br&gt;iva()" style="rounded=0;whiteSpace=wrap;html=1;" vertex="1" parent="1">
                    <mxGeometry x="294" y="110" width="120" height="60" as="geometry"/>
                </mxCell>
                <mxCell id="4" value="precio_neto&lt;br&gt;naturaleza" style="rounded=0;whiteSpace=wrap;html=1;" vertex="1" parent="1">
                    <mxGeometry x="90" y="60" width="120" height="50" as="geometry"/>
                </mxCell>
                <mxCell id="5" value="FactoryFactura" style="rounded=0;whiteSpace=wrap;html=1;fillColor=#a20025;fontColor=#ffffff;strokeColor=#6F0000;" vertex="1" parent="1">
                    <mxGeometry x="294" y="20" width="120" height="40" as="geometry"/>
                </mxCell>
                <mxCell id="6" value="Producto" style="rounded=0;whiteSpace=wrap;html=1;fillColor=#647687;fontColor=#ffffff;strokeColor=#314354;" vertex="1" parent="1">
                    <mxGeometry x="90" y="20" width="120" height="40" as="geometry"/>
                </mxCell>
                <mxCell id="7" value="precio_neto&lt;br&gt;naturaleza" style="rounded=0;whiteSpace=wrap;html=1;" vertex="1" parent="1">
                    <mxGeometry x="294" y="60" width="120" height="50" as="geometry"/>
                </mxCell>
            </root>
        </mxGraphModel>
    </diagram>
</mxfile>